<svg xmlns="http://www.w3.org/2000/svg" viewBox="0 0 100 100">
  <defs>
    <linearGradient id="bg" x1="0%" y1="0%" x2="100%" y2="100%">
      <stop offset="0%" style="stop-color:#667eea"/>
      <stop offset="100%" style="stop-color:#764ba2"/>
    </linearGradient>
  </defs>

  <!-- Background -->
  <rect width="100" height="100" rx="22" fill="url(#bg)"/>

  <!-- MC Monogram -->
  <g fill="#FFFFFF">
    <!-- M -->
    <path d="M 12 70 L 12 30 L 20 30 L 32.5 50 L 45 30 L 53 30 L 53 70 L 45 70 L 45 45 L 32.5 62 L 20 45 L 20 70 Z"/>

    <!-- C -->
    <path d="M 78 30 Q 88 30, 88 40 L 81 40 Q 81 37, 78 37 L 67 37 Q 64 37, 64 40 L 64 60 Q 64 63, 67 63 L 78 63 Q 81 63, 81 60 L 88 60 Q 88 70, 78 70 L 67 70 Q 57 70, 57 60 L 57 40 Q 57 30, 67 30 Z"/>
  </g>
</svg>
